<svg id="Layer_1" enable-background="new 0 0 512 512" viewBox="0 0 512 512" xmlns="http://www.w3.org/2000/svg" xmlns:xlink="http://www.w3.org/1999/xlink"><linearGradient id="SVGID_1_" gradientUnits="userSpaceOnUse" x1="76" x2="436" y1="256" y2="256"><stop offset="0" stop-color="#80d8ff"/><stop offset="1" stop-color="#ea80fc"/></linearGradient><path d="m336 512h-160c-55.14 0-100-44.86-100-100v-312c0-55.14 44.86-100 100-100h160c55.14 0 100 44.86 100 100v312c0 55.14-44.86 100-100 100zm-160-472c-33.084 0-60 26.916-60 60v312c0 33.084 26.916 60 60 60h160c33.084 0 60-26.916 60-60v-312c0-33.084-26.916-60-60-60z" fill="url(#SVGID_1_)"/></svg>