<svg fill="none" viewBox="0 0 20 20" xmlns="http://www.w3.org/2000/svg" xmlns:xlink="http://www.w3.org/1999/xlink"><linearGradient id="paint0_linear_3139_99" gradientUnits="userSpaceOnUse" x1="10.16" x2="10.16" y1="0" y2="20"><stop offset="0" stop-color="#ee9ae5"/><stop offset="1" stop-color="#5961f9"/></linearGradient><path clip-rule="evenodd" d="m9.02749 0c-.49756 0-.91944.365936-.98975.858582l-.37134 2.598698c-.70239.26789-1.35058.64567-1.92358 1.11232l-2.43799-.9786c-.46191-.18536-.98974-.00294-1.23852.42804l-1.132572 1.9619c-.249024.43099-.143067.97934.248532 1.28661l2.06568 1.62149c-.05762.36181-.08765.73289-.08765 1.11096 0 .3781.03003.7491.08765 1.1109l-2.06568 1.6215c-.391599.3073-.497556.8557-.248532 1.2866l1.132572 1.9619c.24878.431.77661.6134 1.23852.4281l2.43799-.9786c.573.4666 1.22119.8444 1.92358 1.1123l.37134 2.5987c.07031.4927.49219.8586.98975.8586h2.26561c.4976 0 .9194-.3659.9898-.8586l.3713-2.5987c.7024-.2679 1.3506-.6456 1.9236-1.1122l2.4377.9785c.4619.1853.9898.0029 1.2385-.4281l1.1329-1.9619c.2487-.4309.1428-.9793-.2486-1.2866l-2.0656-1.6214c.0576-.3618.0876-.7329.0876-1.111 0-.12347-.0032-.2462-.0095-.3681-.013-.25138-.0393-.49924-.0781-.74292l2.0656-1.62143c.3914-.30727.4973-.85562.2486-1.28661l-1.1329-1.9619c-.2487-.43098-.7766-.6134-1.2385-.42804l-2.4377.97853c-.573-.46661-1.2212-.84436-1.9236-1.11225l-.3713-2.598698c-.0704-.492646-.4922-.858582-.9898-.858582zm1.13291 13c1.6569 0 3-1.3431 3-3 0-1.65685-1.3431-3-3-3-1.65685 0-3 1.34315-3 3 0 1.6569 1.34315 3 3 3z" fill="url(#paint0_linear_3139_99)" fill-rule="evenodd"/></svg>